<svg width="130" height="18" viewBox="0 0 130 18" fill="none" xmlns="http://www.w3.org/2000/svg">
    <path d="M4.016 0.248V17H0.656V0.248H4.016ZM19.5517 5.432C19.5517 6.328 19.3357 7.168 18.9037 7.952C18.4877 8.736 17.8237 9.368 16.9117 9.848C16.0157 10.328 14.8797 10.568 13.5037 10.568H10.6957V17H7.33569V0.248H13.5037C14.7997 0.248 15.9037 0.472 16.8157 0.92C17.7277 1.368 18.4077 1.984 18.8557 2.768C19.3197 3.552 19.5517 4.44 19.5517 5.432ZM13.3597 7.856C14.2877 7.856 14.9757 7.648 15.4237 7.232C15.8717 6.8 16.0957 6.2 16.0957 5.432C16.0957 3.8 15.1837 2.984 13.3597 2.984H10.6957V7.856H13.3597ZM32.1613 7.016V9.848H21.9853V7.016H32.1613ZM48.1454 5.432C48.1454 6.328 47.9294 7.168 47.4974 7.952C47.0814 8.736 46.4174 9.368 45.5054 9.848C44.6094 10.328 43.4734 10.568 42.0974 10.568H39.2894V17H35.9294V0.248H42.0974C43.3934 0.248 44.4974 0.472 45.4094 0.92C46.3214 1.368 47.0014 1.984 47.4494 2.768C47.9134 3.552 48.1454 4.44 48.1454 5.432ZM41.9534 7.856C42.8814 7.856 43.5694 7.648 44.0174 7.232C44.4654 6.8 44.6894 6.2 44.6894 5.432C44.6894 3.8 43.7774 2.984 41.9534 2.984H39.2894V7.856H41.9534ZM64.859 17H61.499L53.891 5.504V17H50.531V0.223999H53.891L61.499 11.744V0.223999H64.859V17ZM69.6674 17.168C69.0594 17.168 68.5554 16.984 68.1554 16.616C67.7714 16.232 67.5794 15.76 67.5794 15.2C67.5794 14.64 67.7714 14.176 68.1554 13.808C68.5554 13.424 69.0594 13.232 69.6674 13.232C70.2594 13.232 70.7474 13.424 71.1314 13.808C71.5154 14.176 71.7074 14.64 71.7074 15.2C71.7074 15.76 71.5154 16.232 71.1314 16.616C70.7474 16.984 70.2594 17.168 69.6674 17.168ZM73.5978 8.6C73.5978 6.952 73.9658 5.48 74.7018 4.184C75.4538 2.872 76.4698 1.856 77.7498 1.136C79.0458 0.4 80.4938 0.0319996 82.0938 0.0319996C83.9658 0.0319996 85.6058 0.512 87.0138 1.472C88.4218 2.432 89.4058 3.76 89.9658 5.456H86.1018C85.7178 4.656 85.1738 4.056 84.4698 3.656C83.7818 3.256 82.9818 3.056 82.0698 3.056C81.0938 3.056 80.2218 3.288 79.4538 3.752C78.7018 4.2 78.1098 4.84 77.6778 5.672C77.2618 6.504 77.0538 7.48 77.0538 8.6C77.0538 9.704 77.2618 10.68 77.6778 11.528C78.1098 12.36 78.7018 13.008 79.4538 13.472C80.2218 13.92 81.0938 14.144 82.0698 14.144C82.9818 14.144 83.7818 13.944 84.4698 13.544C85.1738 13.128 85.7178 12.52 86.1018 11.72H89.9658C89.4058 13.432 88.4218 14.768 87.0138 15.728C85.6218 16.672 83.9818 17.144 82.0938 17.144C80.4938 17.144 79.0458 16.784 77.7498 16.064C76.4698 15.328 75.4538 14.312 74.7018 13.016C73.9658 11.72 73.5978 10.248 73.5978 8.6ZM100.612 17.168C99.0437 17.168 97.6037 16.8 96.2917 16.064C94.9797 15.328 93.9397 14.312 93.1717 13.016C92.4037 11.704 92.0197 10.224 92.0197 8.576C92.0197 6.944 92.4037 5.48 93.1717 4.184C93.9397 2.872 94.9797 1.848 96.2917 1.112C97.6037 0.375999 99.0437 0.0079999 100.612 0.0079999C102.196 0.0079999 103.636 0.375999 104.932 1.112C106.244 1.848 107.276 2.872 108.028 4.184C108.796 5.48 109.18 6.944 109.18 8.576C109.18 10.224 108.796 11.704 108.028 13.016C107.276 14.312 106.244 15.328 104.932 16.064C103.62 16.8 102.18 17.168 100.612 17.168ZM100.612 14.168C101.62 14.168 102.508 13.944 103.276 13.496C104.044 13.032 104.644 12.376 105.076 11.528C105.508 10.68 105.724 9.696 105.724 8.576C105.724 7.456 105.508 6.48 105.076 5.648C104.644 4.8 104.044 4.152 103.276 3.704C102.508 3.256 101.62 3.032 100.612 3.032C99.6037 3.032 98.7077 3.256 97.9237 3.704C97.1557 4.152 96.5557 4.8 96.1237 5.648C95.6917 6.48 95.4757 7.456 95.4757 8.576C95.4757 9.696 95.6917 10.68 96.1237 11.528C96.5557 12.376 97.1557 13.032 97.9237 13.496C98.7077 13.944 99.6037 14.168 100.612 14.168ZM129.943 0.248V17H126.583V6.104L122.095 17H119.551L115.039 6.104V17H111.679V0.248H115.495L120.823 12.704L126.151 0.248H129.943Z" fill="#0E2E3B"/>
</svg>